<svg height="61" viewBox="0 0 128 61" width="128" xmlns="http://www.w3.org/2000/svg"><g fill="none" fill-rule="evenodd" transform="translate(9 15)"><g fill-rule="nonzero"><path d="m0 0h30.78v30.78h-30.78z" fill="#000" opacity="0"/><path d="m25.8039 8.605575-3.629475-3.629475c-.720854-.72175246-1.6988234-1.12770198-2.7189-1.1286h-8.13105c-1.0200766.00089802-1.99804595.40684754-2.7189 1.1286l-3.629475 3.629475c-.72175246.72085405-1.12770198 1.6988234-1.1286 2.7189v11.760525c0 2.1249156 1.72258443 3.8475 3.8475 3.8475h15.39c2.1249156 0 3.8475-1.7225844 3.8475-3.8475v-11.760525c-.000898-1.0200766-.4068475-1.99804595-1.1286-2.7189zm-10.4139 11.914425c-2.8332208 0-5.13-2.2967792-5.13-5.13 0-.7083052.5741948-1.2825 1.2825-1.2825s1.2825.5741948 1.2825 1.2825c0 1.4166104 1.1483896 2.565 2.565 2.565s2.565-1.1483896 2.565-2.565c0-.7083052.5741948-1.2825 1.2825-1.2825s1.2825.5741948 1.2825 1.2825c0 2.8332208-2.2967792 5.13-5.13 5.13zm-7.169175-11.5425 2.193075-2.193075c.2457703-.234356.5710113-.36720092.910575-.371925h8.13105c.3395637.00472408.6648047.137569.910575.371925l2.193075 2.193075z" fill="#f05e64"/></g><text fill="#fff" font-size="23.085" font-weight="300"><tspan x="31.841483" y="23">amazin</tspan></text></g></svg>