<?xml version="1.0" encoding="UTF-8"?>
<svg width="128px" height="61px" viewBox="0 0 128 61" version="1.1" xmlns="http://www.w3.org/2000/svg" xmlns:xlink="http://www.w3.org/1999/xlink">
    <!-- Generator: Sketch 64 (93537) - https://sketch.com -->
    <title>Logo</title>
    <desc>Created with Sketch.</desc>
    <g id="Logo" stroke="none" stroke-width="1" fill="none" fill-rule="evenodd">
        <g id="Group" transform="translate(9.000000, 15.000000)">
            <g id="shopping-bag" fill-rule="nonzero">
                <rect id="Rectangle" fill="#000000" opacity="0" x="0" y="0" width="30.78" height="30.78"></rect>
                <path d="M25.8039,8.605575 L22.174425,4.9761 C21.453571,4.25434754 20.4756016,3.84839802 19.455525,3.8475 L11.324475,3.8475 C10.3043984,3.84839802 9.32642905,4.25434754 8.605575,4.9761 L4.9761,8.605575 C4.25434754,9.32642905 3.84839802,10.3043984 3.8475,11.324475 L3.8475,23.085 C3.8475,25.2099156 5.57008443,26.9325 7.695,26.9325 L23.085,26.9325 C25.2099156,26.9325 26.9325,25.2099156 26.9325,23.085 L26.9325,11.324475 C26.931602,10.3043984 26.5256525,9.32642905 25.8039,8.605575 Z M15.39,20.52 C12.5567792,20.52 10.26,18.2232208 10.26,15.39 C10.26,14.6816948 10.8341948,14.1075 11.5425,14.1075 C12.2508052,14.1075 12.825,14.6816948 12.825,15.39 C12.825,16.8066104 13.9733896,17.955 15.39,17.955 C16.8066104,17.955 17.955,16.8066104 17.955,15.39 C17.955,14.6816948 18.5291948,14.1075 19.2375,14.1075 C19.9458052,14.1075 20.52,14.6816948 20.52,15.39 C20.52,18.2232208 18.2232208,20.52 15.39,20.52 Z M8.220825,8.9775 L10.4139,6.784425 C10.6596703,6.550069 10.9849113,6.41722408 11.324475,6.4125 L19.455525,6.4125 C19.7950887,6.41722408 20.1203297,6.550069 20.3661,6.784425 L22.559175,8.9775 L8.220825,8.9775 Z" id="Shape" fill="#F05E64"></path>
            </g>
            <text id="amazin" font-family="Muli-Light, Muli" font-size="23.085" font-weight="300" fill="#FFFFFF">
                <tspan x="31.8414825" y="23">amazin</tspan>
            </text>
        </g>
    </g>
</svg>
